HIERARCHY
ROOT Hips
{
	OFFSET 0.000000 0.000000 0.000000
	CHANNELS 6 Xposition Yposition Zposition Zrotation Xrotation Yrotation
	JOINT RightUpLeg
	{
		OFFSET -10.032200 0.000000 0.000000
		CHANNELS 3 Zrotation Xrotation Yrotation
		JOINT RightLeg
		{
			OFFSET 0.000000 -40.977000 0.000000
			CHANNELS 3 Zrotation Xrotation Yrotation
			JOINT RightFoot
			{
				OFFSET 0.000000 -38.933200 0.000000
				CHANNELS 3 Zrotation Xrotation Yrotation
				JOINT RightToe
				{
					OFFSET 0.000000 -1.977400 9.184000
					CHANNELS 3 Zrotation Xrotation Yrotation
					JOINT RightToeEnd
					{
						OFFSET 0.000000 2.335600 6.099100
						CHANNELS 3 Zrotation Xrotation Yrotation
						End Site
						{
						    OFFSET 0.000000 1.788000 4.669400
						}
					}
				}
			}
		}
	}
	JOINT LeftUpLeg
	{
		OFFSET 10.032200 0.000000 0.000000
		CHANNELS 3 Zrotation Xrotation Yrotation
		JOINT LeftLeg
		{
			OFFSET 0.000000 -40.977000 0.000000
			CHANNELS 3 Zrotation Xrotation Yrotation
			JOINT LeftFoot
			{
				OFFSET 0.000000 -38.933200 0.000000
				CHANNELS 3 Zrotation Xrotation Yrotation
				JOINT LeftToe
				{
					OFFSET 0.000000 -1.977400 9.184000
					CHANNELS 3 Zrotation Xrotation Yrotation
					JOINT LeftToeEnd
					{
						OFFSET 0.000000 2.335600 6.099100
						CHANNELS 3 Zrotation Xrotation Yrotation
						End Site
						{
						    OFFSET 0.000000 1.788000 4.669400
						}
					}
				}
			}
		}
	}
	JOINT Spine
	{
		OFFSET 0.000000 16.960900 0.000000
		CHANNELS 3 Zrotation Xrotation Yrotation
		JOINT Spine1
		{
			OFFSET 0.000000 13.413900 0.000000
			CHANNELS 3 Zrotation Xrotation Yrotation
			JOINT Spine2
			{
				OFFSET 0.000000 10.384400 0.000000
				CHANNELS 3 Zrotation Xrotation Yrotation
				JOINT LeftShoulder
				{
					OFFSET 2.000000 10.384400 0.000000
					CHANNELS 3 Zrotation Xrotation Yrotation
					JOINT LeftArm
					{
						OFFSET 15.649100 0.000000 0.000000
						CHANNELS 3 Zrotation Xrotation Yrotation
						JOINT LeftForeArm
						{
							OFFSET 0.000000 -26.641600 0.000000
							CHANNELS 3 Zrotation Xrotation Yrotation
							JOINT LeftHand
							{
								OFFSET 0.000000 -23.740600 0.000000
								CHANNELS 3 Zrotation Xrotation Yrotation
								JOINT LeftFinger0
								{
									OFFSET 0.000000 -7.620900 0.000000
									CHANNELS 3 Zrotation Xrotation Yrotation
									End Site
									{
									    OFFSET 0.000000 -5.000000 0.000000
									}
								}
							}
						}
					}
				}
				JOINT RightShoulder
				{
					OFFSET -2.000000 10.384400 0.000000
					CHANNELS 3 Zrotation Xrotation Yrotation
					JOINT RightArm
					{
						OFFSET -15.649100 0.000000 0.000000
						CHANNELS 3 Zrotation Xrotation Yrotation
						JOINT RightForeArm
						{
							OFFSET 0.000000 -26.641600 0.000000
							CHANNELS 3 Zrotation Xrotation Yrotation
							JOINT RightHand
							{
								OFFSET 0.000000 -23.740600 0.000000
								CHANNELS 3 Zrotation Xrotation Yrotation
								JOINT RightFinger0
								{
									OFFSET 0.000000 -7.620900 0.000000
									CHANNELS 3 Zrotation Xrotation Yrotation
									End Site
									{
									    OFFSET 0.000000 -5.000000 0.000000
									}
								}
							}
						}
					}
				}
				JOINT Neck
				{
					OFFSET 0.000000 10.384400 0.000000
					CHANNELS 3 Zrotation Xrotation Yrotation
					JOINT Head
					{
						OFFSET 0.000000 10.146900 0.000000
						CHANNELS 3 Zrotation Xrotation Yrotation
						JOINT HeadTip
						{
							OFFSET 0.000000 10.000000 0.000000
							CHANNELS 3 Zrotation Xrotation Yrotation
							End Site
							{
							    OFFSET 0.000000 5.000000 0.000000
							}
						}
					}
				}
			}
		}
	}
}
MOTION
Frames:	8
Frame Time:	0.033332
59.871000 86.754800 -35.757500 -0.964920 -2.520045 -3.965058 -5.367412 -2.275091 -27.304267 -0.000000 10.445952 -0.000000 7.081141 14.437604 -2.066216 -0.000000 2.032819 -0.000000 -0.000000 -0.000000 -0.000000 3.657061 -3.289205 28.217429 -0.000000 9.634857 0.000000 0.272340 16.469742 -11.744598 -0.000000 -2.414283 0.000000 -0.000000 -0.000000 -0.000000 0.412179 1.403583 0.780307 0.000000 3.807982 0.000000 -0.000000 0.000000 0.000000 -14.892832 0.000000 2.606670 44.061088 -8.904312 -17.033018 0.000000 -23.248529 -0.000000 1.452938 10.378631 -16.239574 -0.000000 0.000000 -0.000000 13.343389 0.000000 0.292336 -36.529163 -12.129920 8.534339 -0.000029 -10.909175 -0.000003 2.009887 18.752084 25.694513 -0.000000 0.000000 0.000000 -0.000000 0.000000 0.000000 -3.492552 4.748745 -1.625658 -0.000000 -0.000000 -0.000000 
59.877000 86.755400 -35.715300 -0.973562 -2.467655 -4.053587 -5.350780 -2.289382 -27.296763 0.000000 10.393350 -0.000000 7.079785 14.453350 -1.999445 -0.000000 1.991582 -0.000000 -0.000000 0.000000 0.000000 3.653879 -3.279088 28.276944 -0.000000 9.593687 -0.000000 0.268906 16.449034 -11.729536 0.000000 -2.462130 0.000000 0.000000 0.000000 -0.000000 0.495443 1.239891 0.964441 -0.000000 3.541230 -0.000000 0.000000 -0.000000 0.000000 -13.988084 -0.000000 2.487455 49.870488 -9.666523 -13.770977 0.000000 -21.730770 0.000000 2.594899 10.382846 -15.103896 0.000000 -0.000000 -0.000000 12.476500 0.000000 0.467840 -42.215120 -12.826192 4.508989 -0.000023 -8.484800 -0.000002 2.055482 19.430360 23.411245 0.000000 -0.000000 -0.000000 0.000000 -0.000000 0.000000 -3.309973 4.825687 -1.603632 0.000000 0.000000 -0.000000 
59.893300 86.754100 -35.642300 -0.969659 -2.447352 -4.108476 -5.358610 -2.263941 -27.213467 0.000000 10.373469 -0.000000 7.147441 14.414789 -2.019411 -0.000000 1.994950 -0.000000 -0.000000 -0.000000 -0.000000 3.625284 -3.228910 28.247592 -0.000000 9.561767 -0.000000 0.248237 16.403666 -11.637686 -0.000000 -2.485144 0.000000 0.000000 0.000000 0.000000 0.578809 1.140729 1.101483 0.000000 3.319451 -0.000000 -0.000000 -0.000000 0.000000 -12.944675 0.000000 2.417494 55.790606 -9.989461 -9.806809 0.000000 -20.714754 0.000000 3.831572 10.366008 -13.974466 -0.000000 0.000000 0.000000 11.498184 0.000000 0.443369 -48.409207 -12.985006 0.871690 -0.000020 -7.667049 -0.000001 1.364771 19.670212 22.187554 -0.000000 0.000000 0.000000 -0.000000 -0.000000 0.000000 -3.214416 4.682341 -1.604270 0.000000 -0.000000 0.000000 
59.911400 86.747600 -35.549700 -0.975008 -2.437183 -4.142343 -5.360644 -2.212203 -27.181896 -0.000000 10.357329 0.000000 7.123300 14.380966 -2.044530 -0.000000 1.949500 -0.000000 -0.000000 0.000000 -0.000000 3.618196 -3.183085 28.241767 -0.000000 9.595227 -0.000000 0.205032 16.322501 -11.603635 0.000000 -2.568445 0.000000 0.000000 0.000000 -0.000000 0.676925 1.071047 1.150067 -0.000000 3.127363 0.000000 -0.000000 0.000000 -0.000000 -11.762567 -0.000000 2.352263 61.455421 -9.806307 -5.659465 -0.000000 -20.188896 0.000000 4.785491 10.093940 -12.486369 0.000000 0.000000 -0.000000 10.497779 0.000000 0.220457 -54.639581 -12.839574 -2.407515 -0.000022 -8.206381 -0.000002 0.119774 19.355309 22.126231 -0.000000 -0.000000 -0.000000 -0.000000 0.000000 -0.000000 -3.086212 4.473128 -1.462270 0.000000 0.000000 -0.000000 
59.947100 86.743700 -35.450500 -0.955749 -2.405528 -4.171645 -5.413817 -2.198658 -27.185311 0.000000 10.392109 -0.000000 7.146232 14.324929 -1.987207 0.000000 1.925523 -0.000000 -0.000000 -0.000000 -0.000000 3.575480 -3.149659 28.254514 0.000000 9.605009 -0.000000 0.243766 16.229711 -11.585239 -0.000000 -2.586897 0.000000 0.000000 -0.000000 -0.000000 0.782787 0.982701 1.120456 -0.000000 2.954290 0.000000 0.000000 -0.000000 -0.000000 -10.484945 -0.000000 2.425416 66.607707 -9.430043 -1.972752 0.000000 -20.052198 -0.000000 5.371899 9.623132 -11.282037 0.000000 0.000000 0.000000 9.380028 -0.000000 -0.106799 -60.477093 -12.540330 -5.151452 -0.000026 -9.699667 -0.000002 -1.663760 18.774367 23.329153 0.000000 0.000000 0.000000 0.000000 -0.000000 -0.000000 -3.003818 4.363630 -1.211952 -0.000000 0.000000 -0.000000 
59.983500 86.742100 -35.350300 -0.952578 -2.384105 -4.282799 -5.444557 -2.177433 -27.099312 -0.000000 10.392261 0.000000 7.176577 14.310352 -1.958237 -0.000000 1.870984 -0.000000 -0.000000 0.000000 -0.000000 3.533547 -3.069073 28.331633 0.000000 9.571359 -0.000000 0.234797 16.147575 -11.534149 0.000000 -2.598422 -0.000000 0.000000 0.000000 -0.000000 0.908672 0.931089 1.085171 -0.000000 2.789328 0.000000 -0.000000 -0.000000 -0.000000 -9.116360 -0.000000 2.561538 70.963522 -8.849036 1.519267 -0.000000 -20.205850 -0.000000 6.333914 8.974001 -11.028418 -0.000000 0.000000 -0.000000 8.077666 0.000000 -0.390267 -65.574048 -12.221218 -7.897682 -0.000031 -11.483069 -0.000003 -3.358991 17.874905 24.619573 -0.000000 -0.000000 -0.000000 -0.000000 -0.000000 -0.000000 -2.928532 4.369565 -0.932827 0.000000 0.000000 -0.000000 
60.024900 86.750200 -35.260400 -0.933965 -2.316539 -4.428600 -5.479721 -2.203785 -26.986479 -0.000000 10.361982 0.000000 7.181325 14.330852 -1.950518 0.000000 1.938053 0.000000 -0.000000 0.000000 -0.000000 3.493222 -3.056898 28.429575 -0.000000 9.582158 0.000000 0.204744 16.099386 -11.486194 0.000000 -2.576969 -0.000000 0.000000 0.000000 0.000000 1.028990 0.816830 1.046470 -0.000000 2.642612 -0.000000 -0.000000 -0.000000 0.000000 -7.799651 -0.000000 2.729478 74.742830 -8.232095 4.453080 -0.000000 -20.467378 -0.000000 6.585357 8.306036 -11.072369 0.000000 0.000000 -0.000000 6.730009 0.000000 -0.667375 -70.047583 -12.042176 -10.415072 -0.000035 -12.995950 -0.000004 -4.661191 17.004693 25.101627 0.000000 0.000000 -0.000000 -0.000000 -0.000000 0.000000 -2.844110 4.554130 -0.765622 -0.000000 0.000000 -0.000000 
60.052300 86.761100 -35.188500 -0.921869 -2.253802 -4.517868 -5.502816 -2.212150 -26.942950 -0.000000 10.309735 -0.000000 7.252318 14.368244 -1.890971 -0.000000 1.890655 0.000000 -0.000000 0.000000 -0.000000 3.463696 -3.056358 28.508761 -0.000000 9.581963 -0.000000 0.247697 16.057480 -11.477694 -0.000000 -2.581807 -0.000000 -0.000000 0.000000 0.000000 1.149719 0.734298 1.018842 -0.000000 2.489419 0.000000 0.000000 0.000000 -0.000000 -6.545887 0.000000 2.830497 78.088500 -7.684113 6.960414 0.000000 -20.592987 -0.000000 6.377430 7.767425 -11.418527 0.000000 0.000000 -0.000000 5.268013 -0.000000 -0.909721 -73.899785 -12.018734 -12.766786 -0.000037 -13.733154 -0.000004 -5.298368 16.262808 25.711080 -0.000000 0.000000 -0.000000 0.000000 0.000000 -0.000000 -2.797812 4.762939 -0.785669 0.000000 0.000000 -0.000000 
